<svg width="300" height="68" viewBox="0 0 300 68" fill="none" xmlns="http://www.w3.org/2000/svg">
<g clip-path="url(#clip0_53_12)">
<path d="M0 34L7.14583 36.2292C14.2917 38.375 28.5417 42.9584 42.9167 42.8959C57.1458 42.9584 71.4583 38.375 85.625 32.8959C100 27.3334 114.375 20.6667 128.542 24C142.854 27.3334 157.083 40.6667 171.458 45.1042C185.708 49.625 200 45.0417 214.375 41.7709C228.562 38.375 242.917 36.2917 257.083 36.2292C271.437 36.2917 285.625 38.375 292.917 39.5625L300 40.6667V67.3334H292.854C285.708 67.3334 271.458 67.3334 257.083 67.3334C242.854 67.3334 228.542 67.3334 214.375 67.3334C200 67.3334 185.625 67.3334 171.458 67.3334C157.146 67.3334 142.917 67.3334 128.542 67.3334C114.292 67.3334 100 67.3334 85.625 67.3334C71.4375 67.3334 57.0833 67.3334 42.9167 67.3334C28.5625 67.3334 14.375 67.3334 7.08333 67.3334H0V34Z" fill="#171717"/>
</g>
<defs>
<clipPath id="clip0_53_12">
<rect width="300" height="66.6667" fill="white" transform="translate(0 0.666626)"/>
</clipPath>
</defs>
</svg>
